<svg xmlns="http://www.w3.org/2000/svg" version="1.1" xmlns:xlink="http://www.w3.org/1999/xlink" xmlns:svgjs="http://svgjs.com/svgjs" width="1812.9735" height="202.2" preserveAspectRatio="none" viewBox="0 0 1812.9735 202.2"><g mask="url(&quot;#SvgjsMask1051&quot;)" fill="none"><rect width="1812.9735" height="202.2" x="0" y="0" fill="rgba(23, 23, 23, 1)"></rect><path d="M25 202.2L227.2 0L602.2 0L400 202.2z" fill="url(#SvgjsLinearGradient1052)"></path><path d="M352.14062750000005 202.2L554.3406275 0L744.8406275 0L542.6406275 202.2z" fill="url(#SvgjsLinearGradient1052)"></path><path d="M615.2812550000001 202.2L817.4812550000001 0L868.4812550000001 0L666.2812550000001 202.2z" fill="url(#SvgjsLinearGradient1052)"></path><path d="M949.4218825000002 202.2L1151.6218825 0L1255.1218825 0L1052.9218825000003 202.2z" fill="url(#SvgjsLinearGradient1052)"></path><path d="M1761.9735 202.2L1559.7735 0L1418.7735 0L1620.9735 202.2z" fill="url(#SvgjsLinearGradient1053)"></path><path d="M1495.8328725000001 202.2L1293.6328725 0L1158.6328725 0L1360.8328725000001 202.2z" fill="url(#SvgjsLinearGradient1053)"></path><path d="M1196.692245 202.2L994.4922449999999 0L571.4922449999999 0L773.692245 202.2z" fill="url(#SvgjsLinearGradient1053)"></path><path d="M870.5516174999999 202.2L668.3516175 0L518.3516175 0L720.5516174999999 202.2z" fill="url(#SvgjsLinearGradient1053)"></path><path d="M1624.7431486049406 202.2L1812.9735 13.96964860494063L1812.9735 202.2z" fill="url(#SvgjsLinearGradient1052)"></path><path d="M0 202.2L188.23035139505936 202.2L 0 13.96964860494063z" fill="url(#SvgjsLinearGradient1053)"></path></g><defs><mask id="SvgjsMask1051"><rect width="1812.9735" height="202.2" fill="#ffffff"></rect></mask><linearGradient x1="0%" y1="100%" x2="100%" y2="0%" id="SvgjsLinearGradient1052"><stop stop-color="rgba(142, 2, 253, 0.2)" offset="0"></stop><stop stop-opacity="0" stop-color="rgba(142, 2, 253, 0.2)" offset="0.66"></stop></linearGradient><linearGradient x1="100%" y1="100%" x2="0%" y2="0%" id="SvgjsLinearGradient1053"><stop stop-color="rgba(142, 2, 253, 0.2)" offset="0"></stop><stop stop-opacity="0" stop-color="rgba(142, 2, 253, 0.2)" offset="0.66"></stop></linearGradient></defs></svg>